<svg xmlns="http://www.w3.org/2000/svg" xmlns:xlink="http://www.w3.org/1999/xlink" width="2000" zoomAndPan="magnify" viewBox="0 0 1500 525.000007" height="700" preserveAspectRatio="xMidYMid meet" version="1.0"><defs><filter x="0%" y="0%" width="100%" height="100%" id="4b3ed143aa"><feColorMatrix values="0 0 0 0 1 0 0 0 0 1 0 0 0 0 1 0 0 0 1 0" color-interpolation-filters="sRGB"/></filter><g/><clipPath id="457923956e"><path d="M 1.425781 0 L 1498.574219 0 L 1498.574219 524 L 1.425781 524 Z M 1.425781 0 " clip-rule="nonzero"/></clipPath><clipPath id="266d347045"><path d="M 0.425781 0 L 1497.574219 0 L 1497.574219 524 L 0.425781 524 Z M 0.425781 0 " clip-rule="nonzero"/></clipPath><clipPath id="fa1e565218"><path d="M 0.425781 0 L 1497.574219 0 L 1497.574219 524 L 0.425781 524 Z M 0.425781 0 " clip-rule="nonzero"/></clipPath><clipPath id="9575198d06"><path d="M 0.425781 0 L 1497.574219 0 L 1497.574219 524 L 0.425781 524 Z M 0.425781 0 " clip-rule="nonzero"/></clipPath><linearGradient x1="-1360.752726" gradientTransform="matrix(0.800556, 0, 0, 0.800735, 1089.78447, -284.619324)" y1="634.5" x2="509.38307" gradientUnits="userSpaceOnUse" y2="634.5" id="f25ea5570b"><stop stop-opacity="1" stop-color="rgb(35.688782%, 39.608765%, 50.979614%)" offset="0"/><stop stop-opacity="1" stop-color="rgb(35.688782%, 39.608765%, 50.979614%)" offset="0.5"/><stop stop-opacity="1" stop-color="rgb(35.688782%, 39.608765%, 50.979614%)" offset="0.625"/><stop stop-opacity="1" stop-color="rgb(35.688782%, 39.608765%, 50.979614%)" offset="0.6875"/><stop stop-opacity="1" stop-color="rgb(35.688782%, 39.608765%, 50.979614%)" offset="0.703125"/><stop stop-opacity="1" stop-color="rgb(35.780334%, 39.697266%, 51.060486%)" offset="0.710938"/><stop stop-opacity="1" stop-color="rgb(36.459351%, 40.348816%, 51.65863%)" offset="0.714844"/><stop stop-opacity="1" stop-color="rgb(37.046814%, 40.913391%, 52.175903%)" offset="0.71875"/><stop stop-opacity="1" stop-color="rgb(37.634277%, 41.477966%, 52.693176%)" offset="0.722656"/><stop stop-opacity="1" stop-color="rgb(38.221741%, 42.042542%, 53.211975%)" offset="0.726562"/><stop stop-opacity="1" stop-color="rgb(38.809204%, 42.607117%, 53.729248%)" offset="0.730469"/><stop stop-opacity="1" stop-color="rgb(39.396667%, 43.171692%, 54.246521%)" offset="0.734375"/><stop stop-opacity="1" stop-color="rgb(39.984131%, 43.734741%, 54.763794%)" offset="0.738281"/><stop stop-opacity="1" stop-color="rgb(40.571594%, 44.299316%, 55.282593%)" offset="0.742188"/><stop stop-opacity="1" stop-color="rgb(41.159058%, 44.863892%, 55.799866%)" offset="0.746094"/><stop stop-opacity="1" stop-color="rgb(41.746521%, 45.428467%, 56.318665%)" offset="0.75"/><stop stop-opacity="1" stop-color="rgb(42.333984%, 45.993042%, 56.835938%)" offset="0.753906"/><stop stop-opacity="1" stop-color="rgb(42.921448%, 46.557617%, 57.35321%)" offset="0.757812"/><stop stop-opacity="1" stop-color="rgb(43.508911%, 47.120667%, 57.870483%)" offset="0.761719"/><stop stop-opacity="1" stop-color="rgb(44.096375%, 47.685242%, 58.389282%)" offset="0.765625"/><stop stop-opacity="1" stop-color="rgb(44.683838%, 48.249817%, 58.906555%)" offset="0.769531"/><stop stop-opacity="1" stop-color="rgb(45.271301%, 48.814392%, 59.423828%)" offset="0.773437"/><stop stop-opacity="1" stop-color="rgb(45.858765%, 49.378967%, 59.941101%)" offset="0.777344"/><stop stop-opacity="1" stop-color="rgb(46.446228%, 49.943542%, 60.4599%)" offset="0.78125"/><stop stop-opacity="1" stop-color="rgb(47.033691%, 50.506592%, 60.977173%)" offset="0.785156"/><stop stop-opacity="1" stop-color="rgb(47.621155%, 51.071167%, 61.495972%)" offset="0.789062"/><stop stop-opacity="1" stop-color="rgb(48.208618%, 51.635742%, 62.013245%)" offset="0.792969"/><stop stop-opacity="1" stop-color="rgb(48.796082%, 52.200317%, 62.530518%)" offset="0.796875"/><stop stop-opacity="1" stop-color="rgb(49.383545%, 52.763367%, 63.047791%)" offset="0.800781"/><stop stop-opacity="1" stop-color="rgb(49.971008%, 53.327942%, 63.566589%)" offset="0.804688"/><stop stop-opacity="1" stop-color="rgb(50.558472%, 53.892517%, 64.083862%)" offset="0.808594"/><stop stop-opacity="1" stop-color="rgb(51.145935%, 54.457092%, 64.601135%)" offset="0.8125"/><stop stop-opacity="1" stop-color="rgb(51.733398%, 55.021667%, 65.118408%)" offset="0.816406"/><stop stop-opacity="1" stop-color="rgb(52.320862%, 55.586243%, 65.637207%)" offset="0.820312"/><stop stop-opacity="1" stop-color="rgb(52.908325%, 56.149292%, 66.15448%)" offset="0.824219"/><stop stop-opacity="1" stop-color="rgb(53.495789%, 56.713867%, 66.671753%)" offset="0.828125"/><stop stop-opacity="1" stop-color="rgb(54.083252%, 57.278442%, 67.189026%)" offset="0.832031"/><stop stop-opacity="1" stop-color="rgb(54.670715%, 57.843018%, 67.707825%)" offset="0.835937"/><stop stop-opacity="1" stop-color="rgb(55.258179%, 58.407593%, 68.225098%)" offset="0.839844"/><stop stop-opacity="1" stop-color="rgb(55.845642%, 58.972168%, 68.743896%)" offset="0.84375"/><stop stop-opacity="1" stop-color="rgb(56.433105%, 59.535217%, 69.261169%)" offset="0.847656"/><stop stop-opacity="1" stop-color="rgb(57.020569%, 60.099792%, 69.778442%)" offset="0.851562"/><stop stop-opacity="1" stop-color="rgb(57.608032%, 60.664368%, 70.295715%)" offset="0.855469"/><stop stop-opacity="1" stop-color="rgb(58.195496%, 61.228943%, 70.814514%)" offset="0.859375"/><stop stop-opacity="1" stop-color="rgb(58.782959%, 61.793518%, 71.331787%)" offset="0.863281"/><stop stop-opacity="1" stop-color="rgb(59.370422%, 62.358093%, 71.84906%)" offset="0.867187"/><stop stop-opacity="1" stop-color="rgb(59.957886%, 62.921143%, 72.366333%)" offset="0.871094"/><stop stop-opacity="1" stop-color="rgb(60.545349%, 63.485718%, 72.885132%)" offset="0.875"/><stop stop-opacity="1" stop-color="rgb(61.132812%, 64.050293%, 73.402405%)" offset="0.878906"/><stop stop-opacity="1" stop-color="rgb(61.720276%, 64.614868%, 73.921204%)" offset="0.882812"/><stop stop-opacity="1" stop-color="rgb(62.307739%, 65.177917%, 74.438477%)" offset="0.886719"/><stop stop-opacity="1" stop-color="rgb(62.895203%, 65.742493%, 74.95575%)" offset="0.890625"/><stop stop-opacity="1" stop-color="rgb(63.482666%, 66.307068%, 75.473022%)" offset="0.894531"/><stop stop-opacity="1" stop-color="rgb(64.070129%, 66.871643%, 75.991821%)" offset="0.898438"/><stop stop-opacity="1" stop-color="rgb(64.657593%, 67.436218%, 76.509094%)" offset="0.902344"/><stop stop-opacity="1" stop-color="rgb(65.245056%, 68.000793%, 77.026367%)" offset="0.90625"/><stop stop-opacity="1" stop-color="rgb(65.83252%, 68.563843%, 77.54364%)" offset="0.910156"/><stop stop-opacity="1" stop-color="rgb(66.419983%, 69.128418%, 78.062439%)" offset="0.914062"/><stop stop-opacity="1" stop-color="rgb(67.007446%, 69.692993%, 78.579712%)" offset="0.917969"/><stop stop-opacity="1" stop-color="rgb(67.59491%, 70.257568%, 79.096985%)" offset="0.921875"/><stop stop-opacity="1" stop-color="rgb(68.182373%, 70.822144%, 79.614258%)" offset="0.925781"/><stop stop-opacity="1" stop-color="rgb(68.769836%, 71.386719%, 80.133057%)" offset="0.929688"/><stop stop-opacity="1" stop-color="rgb(69.3573%, 71.949768%, 80.65033%)" offset="0.933594"/><stop stop-opacity="1" stop-color="rgb(69.944763%, 72.514343%, 81.169128%)" offset="0.9375"/><stop stop-opacity="1" stop-color="rgb(70.532227%, 73.078918%, 81.686401%)" offset="0.941406"/><stop stop-opacity="1" stop-color="rgb(71.11969%, 73.643494%, 82.203674%)" offset="0.945312"/><stop stop-opacity="1" stop-color="rgb(71.707153%, 74.208069%, 82.720947%)" offset="0.949219"/><stop stop-opacity="1" stop-color="rgb(72.294617%, 74.772644%, 83.239746%)" offset="0.953125"/><stop stop-opacity="1" stop-color="rgb(72.88208%, 75.335693%, 83.757019%)" offset="0.957031"/><stop stop-opacity="1" stop-color="rgb(73.469543%, 75.900269%, 84.274292%)" offset="0.960938"/><stop stop-opacity="1" stop-color="rgb(74.055481%, 76.464844%, 84.791565%)" offset="0.964844"/><stop stop-opacity="1" stop-color="rgb(74.642944%, 77.029419%, 85.310364%)" offset="0.96875"/><stop stop-opacity="1" stop-color="rgb(74.966431%, 77.339172%, 85.594177%)" offset="0.972656"/><stop stop-opacity="1" stop-color="rgb(75.289917%, 77.648926%, 85.879517%)" offset="0.976562"/><stop stop-opacity="1" stop-color="rgb(75.289917%, 77.648926%, 85.879517%)" offset="0.984375"/><stop stop-opacity="1" stop-color="rgb(75.289917%, 77.648926%, 85.879517%)" offset="1"/></linearGradient><clipPath id="cf2fb09acc"><rect x="0" width="1498" y="0" height="524"/></clipPath><clipPath id="dba835ff01"><path d="M 0.425781 0 L 1497.574219 0 L 1497.574219 524 L 0.425781 524 Z M 0.425781 0 " clip-rule="nonzero"/></clipPath><clipPath id="55479d576a"><rect x="0" width="1498" y="0" height="524"/></clipPath><clipPath id="3ac12fa5e9"><rect x="0" width="1498" y="0" height="524"/></clipPath><mask id="75eb299c51"><g filter="url(#4b3ed143aa)"><g transform="matrix(1, 0, 0, 1, 0, 0.000000000000109615)"><g clip-path="url(#3ac12fa5e9)"><g clip-path="url(#dba835ff01)"><g transform="matrix(1, 0, 0, 1, 0, 0.000000000000109615)"><g clip-path="url(#55479d576a)"><g fill="#000000" fill-opacity="1"><g transform="translate(1063.331107, 440.828507)"><g><path d="M 29.046875 -329.65625 L 37.03125 -266.484375 L 81.328125 -265.03125 L 81.328125 -0.71875 L 182.984375 -0.71875 L 182.984375 -266.484375 L 247.609375 -266.484375 C 261.160156 -266.484375 267.9375 -258.015625 267.9375 -241.078125 L 267.9375 -61.71875 L 222.1875 -61.71875 L 222.1875 -0.71875 L 376.125 -0.71875 L 376.125 -286.8125 C 376.125 -311.019531 364.265625 -325.300781 340.546875 -329.65625 Z M 29.046875 -329.65625 "/></g></g></g></g></g></g></g></g></g></mask><clipPath id="52b11eeba8"><path d="M 0.425781 0 L 1497.574219 0 L 1497.574219 524 L 0.425781 524 Z M 0.425781 0 " clip-rule="nonzero"/></clipPath><clipPath id="fbc3a0f4c6"><rect x="0" width="1498" y="0" height="524"/></clipPath><clipPath id="f60ebf4f04"><rect x="0" width="1498" y="0" height="524"/></clipPath><clipPath id="a5bd06fc8a"><rect x="0" width="1498" y="0" height="524"/></clipPath><clipPath id="d31bbb8eeb"><path d="M 72.246094 399.976562 L 1100.710938 399.976562 L 1100.710938 440.210938 L 72.246094 440.210938 Z M 72.246094 399.976562 " clip-rule="nonzero"/></clipPath><clipPath id="987990ee88"><path d="M 73.742188 399.976562 L 1099.144531 399.976562 C 1099.542969 399.976562 1099.925781 400.132812 1100.203125 400.414062 C 1100.484375 400.695312 1100.644531 401.078125 1100.644531 401.472656 L 1100.644531 438.710938 C 1100.644531 439.109375 1100.484375 439.492188 1100.203125 439.769531 C 1099.925781 440.050781 1099.542969 440.210938 1099.144531 440.210938 L 73.742188 440.210938 C 73.34375 440.210938 72.964844 440.050781 72.683594 439.769531 C 72.402344 439.492188 72.246094 439.109375 72.246094 438.710938 L 72.246094 401.472656 C 72.246094 401.078125 72.402344 400.695312 72.683594 400.414062 C 72.964844 400.132812 73.34375 399.976562 73.742188 399.976562 Z M 73.742188 399.976562 " clip-rule="nonzero"/></clipPath><clipPath id="59624d0374"><path d="M 0.246094 0.976562 L 1028.640625 0.976562 L 1028.640625 41.210938 L 0.246094 41.210938 Z M 0.246094 0.976562 " clip-rule="nonzero"/></clipPath><clipPath id="ac2abfc160"><path d="M 1.742188 0.976562 L 1027.144531 0.976562 C 1027.542969 0.976562 1027.925781 1.132812 1028.203125 1.414062 C 1028.484375 1.695312 1028.644531 2.078125 1028.644531 2.472656 L 1028.644531 39.710938 C 1028.644531 40.109375 1028.484375 40.492188 1028.203125 40.769531 C 1027.925781 41.050781 1027.542969 41.210938 1027.144531 41.210938 L 1.742188 41.210938 C 1.34375 41.210938 0.964844 41.050781 0.683594 40.769531 C 0.402344 40.492188 0.246094 40.109375 0.246094 39.710938 L 0.246094 2.472656 C 0.246094 2.078125 0.402344 1.695312 0.683594 1.414062 C 0.964844 1.132812 1.34375 0.976562 1.742188 0.976562 Z M 1.742188 0.976562 " clip-rule="nonzero"/></clipPath><linearGradient x1="0.00707019" gradientTransform="matrix(0.157162, 0, 0, 0.157162, 0.244423, 0.976245)" y1="128" x2="6543.561" gradientUnits="userSpaceOnUse" y2="128" id="15af272b18"><stop stop-opacity="1" stop-color="rgb(75.289917%, 77.648926%, 85.879517%)" offset="0"/><stop stop-opacity="1" stop-color="rgb(75.170898%, 77.536011%, 85.775757%)" offset="0.0078125"/><stop stop-opacity="1" stop-color="rgb(74.934387%, 77.308655%, 85.571289%)" offset="0.015625"/><stop stop-opacity="1" stop-color="rgb(74.699402%, 77.081299%, 85.365295%)" offset="0.0234375"/><stop stop-opacity="1" stop-color="rgb(74.462891%, 76.855469%, 85.160828%)" offset="0.03125"/><stop stop-opacity="1" stop-color="rgb(74.227905%, 76.628113%, 84.954834%)" offset="0.0390625"/><stop stop-opacity="1" stop-color="rgb(73.991394%, 76.402283%, 84.750366%)" offset="0.046875"/><stop stop-opacity="1" stop-color="rgb(73.756409%, 76.174927%, 84.544373%)" offset="0.0546875"/><stop stop-opacity="1" stop-color="rgb(73.519897%, 75.949097%, 84.339905%)" offset="0.0625"/><stop stop-opacity="1" stop-color="rgb(73.283386%, 75.721741%, 84.133911%)" offset="0.0703125"/><stop stop-opacity="1" stop-color="rgb(73.048401%, 75.494385%, 83.929443%)" offset="0.078125"/><stop stop-opacity="1" stop-color="rgb(72.81189%, 75.268555%, 83.72345%)" offset="0.0859375"/><stop stop-opacity="1" stop-color="rgb(72.576904%, 75.041199%, 83.518982%)" offset="0.09375"/><stop stop-opacity="1" stop-color="rgb(72.340393%, 74.815369%, 83.312988%)" offset="0.101562"/><stop stop-opacity="1" stop-color="rgb(72.105408%, 74.588013%, 83.108521%)" offset="0.109375"/><stop stop-opacity="1" stop-color="rgb(71.868896%, 74.360657%, 82.902527%)" offset="0.117188"/><stop stop-opacity="1" stop-color="rgb(71.632385%, 74.134827%, 82.698059%)" offset="0.125"/><stop stop-opacity="1" stop-color="rgb(71.3974%, 73.907471%, 82.492065%)" offset="0.132812"/><stop stop-opacity="1" stop-color="rgb(71.160889%, 73.681641%, 82.287598%)" offset="0.140625"/><stop stop-opacity="1" stop-color="rgb(70.925903%, 73.454285%, 82.081604%)" offset="0.148438"/><stop stop-opacity="1" stop-color="rgb(70.689392%, 73.228455%, 81.877136%)" offset="0.15625"/><stop stop-opacity="1" stop-color="rgb(70.454407%, 73.001099%, 81.671143%)" offset="0.164063"/><stop stop-opacity="1" stop-color="rgb(70.217896%, 72.773743%, 81.466675%)" offset="0.171875"/><stop stop-opacity="1" stop-color="rgb(69.981384%, 72.547913%, 81.260681%)" offset="0.179688"/><stop stop-opacity="1" stop-color="rgb(69.746399%, 72.320557%, 81.056213%)" offset="0.1875"/><stop stop-opacity="1" stop-color="rgb(69.509888%, 72.094727%, 80.85022%)" offset="0.195313"/><stop stop-opacity="1" stop-color="rgb(69.274902%, 71.867371%, 80.645752%)" offset="0.203125"/><stop stop-opacity="1" stop-color="rgb(69.038391%, 71.640015%, 80.439758%)" offset="0.210938"/><stop stop-opacity="1" stop-color="rgb(68.80188%, 71.414185%, 80.235291%)" offset="0.21875"/><stop stop-opacity="1" stop-color="rgb(68.566895%, 71.186829%, 80.029297%)" offset="0.226563"/><stop stop-opacity="1" stop-color="rgb(68.330383%, 70.960999%, 79.824829%)" offset="0.234375"/><stop stop-opacity="1" stop-color="rgb(68.095398%, 70.733643%, 79.618835%)" offset="0.242188"/><stop stop-opacity="1" stop-color="rgb(67.858887%, 70.507812%, 79.414368%)" offset="0.25"/><stop stop-opacity="1" stop-color="rgb(67.623901%, 70.280457%, 79.208374%)" offset="0.257812"/><stop stop-opacity="1" stop-color="rgb(67.38739%, 70.053101%, 79.003906%)" offset="0.265625"/><stop stop-opacity="1" stop-color="rgb(67.150879%, 69.827271%, 78.797913%)" offset="0.273437"/><stop stop-opacity="1" stop-color="rgb(66.915894%, 69.599915%, 78.593445%)" offset="0.28125"/><stop stop-opacity="1" stop-color="rgb(66.679382%, 69.374084%, 78.387451%)" offset="0.289062"/><stop stop-opacity="1" stop-color="rgb(66.444397%, 69.146729%, 78.182983%)" offset="0.296875"/><stop stop-opacity="1" stop-color="rgb(66.207886%, 68.919373%, 77.97699%)" offset="0.304687"/><stop stop-opacity="1" stop-color="rgb(65.9729%, 68.693542%, 77.772522%)" offset="0.3125"/><stop stop-opacity="1" stop-color="rgb(65.736389%, 68.466187%, 77.566528%)" offset="0.320312"/><stop stop-opacity="1" stop-color="rgb(65.499878%, 68.240356%, 77.362061%)" offset="0.328125"/><stop stop-opacity="1" stop-color="rgb(65.264893%, 68.013%, 77.156067%)" offset="0.335938"/><stop stop-opacity="1" stop-color="rgb(65.028381%, 67.78717%, 76.951599%)" offset="0.34375"/><stop stop-opacity="1" stop-color="rgb(64.793396%, 67.559814%, 76.745605%)" offset="0.351562"/><stop stop-opacity="1" stop-color="rgb(64.556885%, 67.332458%, 76.541138%)" offset="0.359375"/><stop stop-opacity="1" stop-color="rgb(64.321899%, 67.106628%, 76.335144%)" offset="0.367188"/><stop stop-opacity="1" stop-color="rgb(64.085388%, 66.879272%, 76.130676%)" offset="0.375"/><stop stop-opacity="1" stop-color="rgb(63.848877%, 66.653442%, 75.924683%)" offset="0.382812"/><stop stop-opacity="1" stop-color="rgb(63.613892%, 66.426086%, 75.720215%)" offset="0.390625"/><stop stop-opacity="1" stop-color="rgb(63.37738%, 66.19873%, 75.514221%)" offset="0.398437"/><stop stop-opacity="1" stop-color="rgb(63.142395%, 65.9729%, 75.309753%)" offset="0.40625"/><stop stop-opacity="1" stop-color="rgb(62.905884%, 65.745544%, 75.10376%)" offset="0.414062"/><stop stop-opacity="1" stop-color="rgb(62.670898%, 65.519714%, 74.899292%)" offset="0.421875"/><stop stop-opacity="1" stop-color="rgb(62.434387%, 65.292358%, 74.693298%)" offset="0.429688"/><stop stop-opacity="1" stop-color="rgb(62.197876%, 65.066528%, 74.488831%)" offset="0.4375"/><stop stop-opacity="1" stop-color="rgb(61.962891%, 64.839172%, 74.282837%)" offset="0.445313"/><stop stop-opacity="1" stop-color="rgb(61.726379%, 64.611816%, 74.078369%)" offset="0.453125"/><stop stop-opacity="1" stop-color="rgb(61.491394%, 64.385986%, 73.872375%)" offset="0.460938"/><stop stop-opacity="1" stop-color="rgb(61.254883%, 64.15863%, 73.667908%)" offset="0.46875"/><stop stop-opacity="1" stop-color="rgb(61.019897%, 63.9328%, 73.461914%)" offset="0.476562"/><stop stop-opacity="1" stop-color="rgb(60.783386%, 63.705444%, 73.257446%)" offset="0.484375"/><stop stop-opacity="1" stop-color="rgb(60.546875%, 63.479614%, 73.051453%)" offset="0.492188"/><stop stop-opacity="1" stop-color="rgb(60.31189%, 63.252258%, 72.846985%)" offset="0.5"/><stop stop-opacity="1" stop-color="rgb(60.075378%, 63.024902%, 72.640991%)" offset="0.507813"/><stop stop-opacity="1" stop-color="rgb(59.840393%, 62.799072%, 72.436523%)" offset="0.515625"/><stop stop-opacity="1" stop-color="rgb(59.603882%, 62.571716%, 72.23053%)" offset="0.523438"/><stop stop-opacity="1" stop-color="rgb(59.368896%, 62.345886%, 72.026062%)" offset="0.53125"/><stop stop-opacity="1" stop-color="rgb(59.132385%, 62.11853%, 71.820068%)" offset="0.539062"/><stop stop-opacity="1" stop-color="rgb(58.895874%, 61.891174%, 71.615601%)" offset="0.546875"/><stop stop-opacity="1" stop-color="rgb(58.660889%, 61.665344%, 71.409607%)" offset="0.554688"/><stop stop-opacity="1" stop-color="rgb(58.424377%, 61.437988%, 71.205139%)" offset="0.5625"/><stop stop-opacity="1" stop-color="rgb(58.189392%, 61.212158%, 70.999146%)" offset="0.570312"/><stop stop-opacity="1" stop-color="rgb(57.952881%, 60.984802%, 70.794678%)" offset="0.578125"/><stop stop-opacity="1" stop-color="rgb(57.717896%, 60.758972%, 70.588684%)" offset="0.585938"/><stop stop-opacity="1" stop-color="rgb(57.481384%, 60.531616%, 70.384216%)" offset="0.59375"/><stop stop-opacity="1" stop-color="rgb(57.244873%, 60.30426%, 70.178223%)" offset="0.601562"/><stop stop-opacity="1" stop-color="rgb(57.009888%, 60.07843%, 69.973755%)" offset="0.609375"/><stop stop-opacity="1" stop-color="rgb(56.773376%, 59.851074%, 69.767761%)" offset="0.617188"/><stop stop-opacity="1" stop-color="rgb(56.538391%, 59.625244%, 69.563293%)" offset="0.625"/><stop stop-opacity="1" stop-color="rgb(56.30188%, 59.397888%, 69.3573%)" offset="0.632813"/><stop stop-opacity="1" stop-color="rgb(56.066895%, 59.170532%, 69.152832%)" offset="0.640625"/><stop stop-opacity="1" stop-color="rgb(55.830383%, 58.944702%, 68.946838%)" offset="0.648438"/><stop stop-opacity="1" stop-color="rgb(55.593872%, 58.717346%, 68.742371%)" offset="0.65625"/><stop stop-opacity="1" stop-color="rgb(55.358887%, 58.491516%, 68.536377%)" offset="0.664063"/><stop stop-opacity="1" stop-color="rgb(55.122375%, 58.26416%, 68.331909%)" offset="0.671875"/><stop stop-opacity="1" stop-color="rgb(54.88739%, 58.03833%, 68.125916%)" offset="0.679688"/><stop stop-opacity="1" stop-color="rgb(54.650879%, 57.810974%, 67.921448%)" offset="0.6875"/><stop stop-opacity="1" stop-color="rgb(54.415894%, 57.583618%, 67.715454%)" offset="0.695313"/><stop stop-opacity="1" stop-color="rgb(54.179382%, 57.357788%, 67.510986%)" offset="0.703125"/><stop stop-opacity="1" stop-color="rgb(53.942871%, 57.130432%, 67.304993%)" offset="0.710938"/><stop stop-opacity="1" stop-color="rgb(53.707886%, 56.904602%, 67.100525%)" offset="0.71875"/><stop stop-opacity="1" stop-color="rgb(53.471375%, 56.677246%, 66.894531%)" offset="0.726562"/><stop stop-opacity="1" stop-color="rgb(53.236389%, 56.44989%, 66.690063%)" offset="0.734375"/><stop stop-opacity="1" stop-color="rgb(52.999878%, 56.22406%, 66.48407%)" offset="0.742188"/><stop stop-opacity="1" stop-color="rgb(52.764893%, 55.996704%, 66.279602%)" offset="0.75"/><stop stop-opacity="1" stop-color="rgb(52.528381%, 55.770874%, 66.073608%)" offset="0.757812"/><stop stop-opacity="1" stop-color="rgb(52.29187%, 55.543518%, 65.869141%)" offset="0.765625"/><stop stop-opacity="1" stop-color="rgb(52.056885%, 55.317688%, 65.663147%)" offset="0.773438"/><stop stop-opacity="1" stop-color="rgb(51.820374%, 55.090332%, 65.458679%)" offset="0.78125"/><stop stop-opacity="1" stop-color="rgb(51.585388%, 54.862976%, 65.252686%)" offset="0.789063"/><stop stop-opacity="1" stop-color="rgb(51.348877%, 54.637146%, 65.048218%)" offset="0.796875"/><stop stop-opacity="1" stop-color="rgb(51.113892%, 54.40979%, 64.842224%)" offset="0.804688"/><stop stop-opacity="1" stop-color="rgb(50.87738%, 54.18396%, 64.637756%)" offset="0.8125"/><stop stop-opacity="1" stop-color="rgb(50.640869%, 53.956604%, 64.431763%)" offset="0.820313"/><stop stop-opacity="1" stop-color="rgb(50.405884%, 53.729248%, 64.227295%)" offset="0.828125"/><stop stop-opacity="1" stop-color="rgb(50.169373%, 53.503418%, 64.021301%)" offset="0.835938"/><stop stop-opacity="1" stop-color="rgb(49.934387%, 53.276062%, 63.816833%)" offset="0.84375"/><stop stop-opacity="1" stop-color="rgb(49.697876%, 53.050232%, 63.61084%)" offset="0.851562"/><stop stop-opacity="1" stop-color="rgb(49.462891%, 52.822876%, 63.406372%)" offset="0.859375"/><stop stop-opacity="1" stop-color="rgb(49.226379%, 52.597046%, 63.200378%)" offset="0.867188"/><stop stop-opacity="1" stop-color="rgb(48.989868%, 52.36969%, 62.995911%)" offset="0.875"/><stop stop-opacity="1" stop-color="rgb(48.754883%, 52.142334%, 62.789917%)" offset="0.882812"/><stop stop-opacity="1" stop-color="rgb(48.518372%, 51.916504%, 62.585449%)" offset="0.890625"/><stop stop-opacity="1" stop-color="rgb(48.283386%, 51.689148%, 62.379456%)" offset="0.898438"/><stop stop-opacity="1" stop-color="rgb(48.046875%, 51.463318%, 62.174988%)" offset="0.90625"/><stop stop-opacity="1" stop-color="rgb(47.81189%, 51.235962%, 61.968994%)" offset="0.914062"/><stop stop-opacity="1" stop-color="rgb(47.575378%, 51.008606%, 61.764526%)" offset="0.921875"/><stop stop-opacity="1" stop-color="rgb(47.338867%, 50.782776%, 61.558533%)" offset="0.929688"/><stop stop-opacity="1" stop-color="rgb(47.103882%, 50.55542%, 61.354065%)" offset="0.9375"/><stop stop-opacity="1" stop-color="rgb(46.867371%, 50.32959%, 61.148071%)" offset="0.945313"/><stop stop-opacity="1" stop-color="rgb(46.632385%, 50.102234%, 60.943604%)" offset="0.953125"/><stop stop-opacity="1" stop-color="rgb(46.395874%, 49.876404%, 60.73761%)" offset="0.960938"/><stop stop-opacity="1" stop-color="rgb(46.160889%, 49.649048%, 60.533142%)" offset="0.96875"/><stop stop-opacity="1" stop-color="rgb(45.924377%, 49.421692%, 60.327148%)" offset="0.976562"/><stop stop-opacity="1" stop-color="rgb(45.687866%, 49.195862%, 60.122681%)" offset="0.984375"/><stop stop-opacity="1" stop-color="rgb(45.452881%, 48.968506%, 59.916687%)" offset="0.992188"/><stop stop-opacity="1" stop-color="rgb(45.21637%, 48.742676%, 59.712219%)" offset="1"/></linearGradient><clipPath id="c8c383661e"><rect x="0" width="1029" y="0" height="42"/></clipPath><clipPath id="158971ca32"><path d="M 1.425781 0 L 1498.574219 0 L 1498.574219 524 L 1.425781 524 Z M 1.425781 0 " clip-rule="nonzero"/></clipPath><clipPath id="1f2623bcd5"><path d="M 0.425781 0 L 1497.574219 0 L 1497.574219 524 L 0.425781 524 Z M 0.425781 0 " clip-rule="nonzero"/></clipPath><clipPath id="2fe6dd9e7a"><path d="M 0.425781 0 L 1497.574219 0 L 1497.574219 524 L 0.425781 524 Z M 0.425781 0 " clip-rule="nonzero"/></clipPath><clipPath id="d80fc15a5d"><path d="M 0.425781 0 L 1497.574219 0 L 1497.574219 524 L 0.425781 524 Z M 0.425781 0 " clip-rule="nonzero"/></clipPath><linearGradient x1="248.493095" gradientTransform="matrix(0.800568, 0, 0, 0.800591, -198.509833, -193.602302)" y1="487" x2="2118.600072" gradientUnits="userSpaceOnUse" y2="487" id="5226afe45d"><stop stop-opacity="1" stop-color="rgb(35.688782%, 39.608765%, 50.979614%)" offset="0"/><stop stop-opacity="1" stop-color="rgb(35.688782%, 39.608765%, 50.979614%)" offset="0.125"/><stop stop-opacity="1" stop-color="rgb(35.688782%, 39.608765%, 50.979614%)" offset="0.1875"/><stop stop-opacity="1" stop-color="rgb(35.688782%, 39.608765%, 50.979614%)" offset="0.203125"/><stop stop-opacity="1" stop-color="rgb(35.688782%, 39.608765%, 50.979614%)" offset="0.210937"/><stop stop-opacity="1" stop-color="rgb(36.613464%, 40.496826%, 51.794434%)" offset="0.214844"/><stop stop-opacity="1" stop-color="rgb(37.538147%, 41.386414%, 52.609253%)" offset="0.21875"/><stop stop-opacity="1" stop-color="rgb(38.578796%, 42.385864%, 53.526306%)" offset="0.222656"/><stop stop-opacity="1" stop-color="rgb(39.619446%, 43.385315%, 54.443359%)" offset="0.226562"/><stop stop-opacity="1" stop-color="rgb(40.660095%, 44.38324%, 55.360413%)" offset="0.230469"/><stop stop-opacity="1" stop-color="rgb(41.700745%, 45.38269%, 56.277466%)" offset="0.234375"/><stop stop-opacity="1" stop-color="rgb(42.739868%, 46.382141%, 57.192993%)" offset="0.238281"/><stop stop-opacity="1" stop-color="rgb(43.780518%, 47.381592%, 58.110046%)" offset="0.242187"/><stop stop-opacity="1" stop-color="rgb(44.821167%, 48.381042%, 59.0271%)" offset="0.246094"/><stop stop-opacity="1" stop-color="rgb(45.861816%, 49.380493%, 59.944153%)" offset="0.25"/><stop stop-opacity="1" stop-color="rgb(46.902466%, 50.379944%, 60.861206%)" offset="0.253906"/><stop stop-opacity="1" stop-color="rgb(47.943115%, 51.379395%, 61.778259%)" offset="0.257812"/><stop stop-opacity="1" stop-color="rgb(48.982239%, 52.378845%, 62.695312%)" offset="0.261719"/><stop stop-opacity="1" stop-color="rgb(50.022888%, 53.378296%, 63.612366%)" offset="0.265625"/><stop stop-opacity="1" stop-color="rgb(51.063538%, 54.377747%, 64.529419%)" offset="0.269531"/><stop stop-opacity="1" stop-color="rgb(52.104187%, 55.377197%, 65.446472%)" offset="0.273438"/><stop stop-opacity="1" stop-color="rgb(53.144836%, 56.376648%, 66.363525%)" offset="0.277344"/><stop stop-opacity="1" stop-color="rgb(54.185486%, 57.376099%, 67.280579%)" offset="0.28125"/><stop stop-opacity="1" stop-color="rgb(55.224609%, 58.375549%, 68.196106%)" offset="0.285156"/><stop stop-opacity="1" stop-color="rgb(56.265259%, 59.375%, 69.113159%)" offset="0.289062"/><stop stop-opacity="1" stop-color="rgb(57.305908%, 60.374451%, 70.030212%)" offset="0.292969"/><stop stop-opacity="1" stop-color="rgb(58.346558%, 61.373901%, 70.947266%)" offset="0.296875"/><stop stop-opacity="1" stop-color="rgb(59.387207%, 62.373352%, 71.864319%)" offset="0.300781"/><stop stop-opacity="1" stop-color="rgb(60.427856%, 63.372803%, 72.781372%)" offset="0.304688"/><stop stop-opacity="1" stop-color="rgb(61.46698%, 64.372253%, 73.698425%)" offset="0.308594"/><stop stop-opacity="1" stop-color="rgb(62.507629%, 65.371704%, 74.615479%)" offset="0.3125"/><stop stop-opacity="1" stop-color="rgb(63.548279%, 66.371155%, 75.532532%)" offset="0.316406"/><stop stop-opacity="1" stop-color="rgb(64.588928%, 67.370605%, 76.449585%)" offset="0.320312"/><stop stop-opacity="1" stop-color="rgb(65.629578%, 68.370056%, 77.366638%)" offset="0.324219"/><stop stop-opacity="1" stop-color="rgb(66.670227%, 69.369507%, 78.283691%)" offset="0.328125"/><stop stop-opacity="1" stop-color="rgb(67.710876%, 70.368958%, 79.199219%)" offset="0.332031"/><stop stop-opacity="1" stop-color="rgb(68.751526%, 71.368408%, 80.116272%)" offset="0.335938"/><stop stop-opacity="1" stop-color="rgb(69.790649%, 72.367859%, 81.033325%)" offset="0.339844"/><stop stop-opacity="1" stop-color="rgb(70.831299%, 73.36731%, 81.950378%)" offset="0.34375"/><stop stop-opacity="1" stop-color="rgb(71.871948%, 74.36676%, 82.867432%)" offset="0.347656"/><stop stop-opacity="1" stop-color="rgb(72.912598%, 75.366211%, 83.784485%)" offset="0.351562"/><stop stop-opacity="1" stop-color="rgb(73.953247%, 76.365662%, 84.701538%)" offset="0.355469"/><stop stop-opacity="1" stop-color="rgb(74.993896%, 77.365112%, 85.618591%)" offset="0.359375"/><stop stop-opacity="1" stop-color="rgb(75.141907%, 77.507019%, 85.748291%)" offset="0.375"/><stop stop-opacity="1" stop-color="rgb(75.289917%, 77.648926%, 85.879517%)" offset="0.5"/><stop stop-opacity="1" stop-color="rgb(75.289917%, 77.648926%, 85.879517%)" offset="1"/></linearGradient><clipPath id="89ad22e057"><rect x="0" width="1498" y="0" height="524"/></clipPath><clipPath id="8e9f6f4c51"><path d="M 0.425781 0 L 1497.574219 0 L 1497.574219 524 L 0.425781 524 Z M 0.425781 0 " clip-rule="nonzero"/></clipPath><clipPath id="7ddbfd1657"><rect x="0" width="1498" y="0" height="524"/></clipPath><clipPath id="d688dcdc34"><rect x="0" width="1498" y="0" height="524"/></clipPath><mask id="1b5a94ddc2"><g filter="url(#4b3ed143aa)"><g transform="matrix(1, 0, 0, 1, 0, 0.000000000000109615)"><g clip-path="url(#d688dcdc34)"><g clip-path="url(#8e9f6f4c51)"><g transform="matrix(1, 0, 0, 1, 0, 0.000000000000109615)"><g clip-path="url(#7ddbfd1657)"><g fill="#000000" fill-opacity="1"><g transform="translate(317.611588, 363.224617)"><g><path d="M 36.265625 -305.1875 C 30.316406 -305.1875 26.410156 -301.648438 24.546875 -294.578125 C 23.804688 -291.972656 23.0625 -282.117188 22.3125 -265.015625 L 22.3125 -212.5625 L 98.75 -212.5625 L 98.75 -265.015625 C 98.75 -282.492188 98.378906 -292.347656 97.640625 -294.578125 C 95.773438 -301.648438 91.492188 -305.1875 84.796875 -305.1875 C 69.179688 -305.1875 53.003906 -305.1875 36.265625 -305.1875 Z M 145.625 -305.1875 C 139.664062 -305.1875 135.757812 -301.648438 133.90625 -294.578125 C 133.15625 -291.972656 132.410156 -282.117188 131.671875 -265.015625 L 131.671875 -212.5625 L 208.65625 -212.5625 L 208.65625 -265.015625 C 208.289062 -282.117188 207.734375 -291.972656 206.984375 -294.578125 C 205.128906 -301.648438 200.851562 -305.1875 194.15625 -305.1875 C 178.53125 -305.1875 162.351562 -305.1875 145.625 -305.1875 Z M 145.625 -305.1875 "/></g></g></g></g></g></g></g></g></g></mask><clipPath id="cedc82a5e1"><path d="M 0.425781 0 L 1497.574219 0 L 1497.574219 524 L 0.425781 524 Z M 0.425781 0 " clip-rule="nonzero"/></clipPath><clipPath id="a7feafaf40"><rect x="0" width="1498" y="0" height="524"/></clipPath><clipPath id="b9001121a8"><rect x="0" width="1498" y="0" height="524"/></clipPath><clipPath id="906c22b5b8"><rect x="0" width="1498" y="0" height="524"/></clipPath><clipPath id="f8f5552cff"><path d="M 1100.644531 80 L 1442.664062 80 L 1442.664062 267.417969 L 1100.644531 267.417969 Z M 1100.644531 80 " clip-rule="nonzero"/></clipPath></defs><g clip-path="url(#457923956e)"><g transform="matrix(1, 0, 0, 1, 1, 0.000000000000109615)"><g clip-path="url(#a5bd06fc8a)"><g clip-path="url(#266d347045)"><g transform="matrix(1, 0, 0, 1, 0, 0.000000000000109615)"><g clip-path="url(#f60ebf4f04)"><g clip-path="url(#fa1e565218)"><g mask="url(#75eb299c51)"><g transform="matrix(1, 0, 0, 1, 0, 0.000000000000109615)"><g clip-path="url(#fbc3a0f4c6)"><g clip-path="url(#52b11eeba8)"><path fill="url(#f25ea5570b)" d="M 0.425781 0 L 0.425781 524 L 1497.574219 524 L 1497.574219 0 Z M 0.425781 0 " fill-rule="nonzero"/></g></g></g></g></g></g></g></g></g></g></g><g clip-path="url(#d31bbb8eeb)"><g clip-path="url(#987990ee88)"><g transform="matrix(1, 0, 0, 1, 72, 399)"><g clip-path="url(#c8c383661e)"><g clip-path="url(#59624d0374)"><g clip-path="url(#ac2abfc160)"><path fill="url(#15af272b18)" d="M 0.246094 0.976562 L 0.246094 41.210938 L 1028.640625 41.210938 L 1028.640625 0.976562 Z M 0.246094 0.976562 " fill-rule="nonzero"/></g></g></g></g></g></g><g clip-path="url(#158971ca32)"><g transform="matrix(1, 0, 0, 1, 1, 0.000000000000109615)"><g clip-path="url(#906c22b5b8)"><g fill="#474c69" fill-opacity="1"><g transform="translate(43.107484, 363.224617)"><g><path d="M 22.3125 -253.296875 L 28.453125 -204.75 L 159 -204.75 C 171.28125 -204.75 177.421875 -197.867188 177.421875 -184.109375 L 177.421875 -0.5625 L 260.546875 -0.5625 C 260.546875 -99.5 260.546875 -173.703125 260.546875 -223.171875 C 260.546875 -231.722656 257.015625 -238.789062 249.953125 -244.375 C 242.878906 -250.320312 234.695312 -253.296875 225.40625 -253.296875 Z M 35.15625 -174.078125 L 35.15625 -0.5625 L 88.703125 -0.5625 C 103.210938 -0.5625 111.769531 -7.066406 114.375 -20.078125 C 114.75 -24.546875 114.9375 -42.773438 114.9375 -74.765625 L 114.9375 -174.078125 Z M 35.15625 -174.078125 "/></g></g></g><g fill="#474c69" fill-opacity="1"><g transform="translate(540.234896, 363.224617)"><g><path d="M 69.1875 -253.296875 L 75.3125 -204.75 L 126.09375 -204.75 C 135.757812 -204.75 140.59375 -198.242188 140.59375 -185.234375 L 140.59375 -47.421875 L 22.3125 -47.421875 L 22.3125 -0.5625 L 223.734375 -0.5625 C 224.097656 -135.207031 224.28125 -208.476562 224.28125 -220.375 C 224.28125 -238.976562 215.171875 -249.953125 196.953125 -253.296875 Z M 69.1875 -253.296875 "/></g></g></g><g fill="#474c69" fill-opacity="1"><g transform="translate(778.470498, 363.224617)"><g><path d="M 22.3125 -253.296875 L 28.453125 -204.75 L 62.484375 -203.640625 L 62.484375 -47.421875 L 22.3125 -47.421875 L 22.3125 -0.5625 L 140.59375 -0.5625 L 140.59375 -204.75 L 190.25 -204.75 C 200.664062 -204.75 205.875 -198.242188 205.875 -185.234375 L 205.875 -0.5625 L 289 -0.5625 L 289 -220.375 C 289 -238.976562 279.890625 -249.953125 261.671875 -253.296875 Z M 22.3125 -253.296875 "/></g></g></g><g clip-path="url(#1f2623bcd5)"><g transform="matrix(1, 0, 0, 1, 0, 0.000000000000109615)"><g clip-path="url(#b9001121a8)"><g clip-path="url(#2fe6dd9e7a)"><g mask="url(#1b5a94ddc2)"><g transform="matrix(1, 0, 0, 1, 0, 0.000000000000109615)"><g clip-path="url(#a7feafaf40)"><g clip-path="url(#cedc82a5e1)"><path fill="url(#5226afe45d)" d="M 0.425781 0 L 0.425781 524 L 1497.574219 524 L 1497.574219 0 Z M 0.425781 0 " fill-rule="nonzero"/></g></g></g></g></g></g></g></g></g></g></g><g clip-path="url(#f8f5552cff)"><path fill="#474c69" d="M 1442.886719 163.851562 L 1442.886719 159.269531 L 1347.441406 159.269531 C 1357.621094 154.785156 1367.539062 149.691406 1377.085938 143.984375 C 1382.894531 140.515625 1388.703125 136.652344 1393.105469 131.433594 C 1397.648438 126.039062 1400.273438 119.4375 1400.785156 112.414062 C 1401.253906 105.992188 1399.730469 99.167969 1395.894531 93.917969 C 1392.15625 88.796875 1386.3125 85.304688 1379.808594 86.074219 C 1372.820312 86.898438 1367.003906 91.390625 1362.203125 96.246094 C 1357.382812 101.117188 1353.367188 106.785156 1350.046875 112.769531 C 1345.242188 121.433594 1341.953125 130.777344 1339.316406 140.308594 C 1337.527344 131.269531 1334.457031 122.488281 1330.375 114.207031 C 1327.140625 107.652344 1323.28125 101.292969 1318.691406 95.597656 C 1314.199219 90.027344 1308.785156 84.890625 1302.035156 82.226562 C 1296.1875 79.917969 1289.371094 79.523438 1283.453125 81.839844 C 1277.105469 84.320312 1272.488281 89.640625 1271.347656 96.429688 C 1270.140625 103.609375 1272.390625 110.886719 1276.449219 116.804688 C 1280.734375 123.050781 1286.621094 127.957031 1292.335938 132.832031 C 1303.65625 142.484375 1315.390625 151.835938 1328.316406 159.269531 L 1099.160156 159.269531 L 1099.160156 163.851562 L 1329.949219 163.851562 C 1330.285156 165.238281 1330.816406 166.625 1331.542969 167.8125 C 1328.554688 174.261719 1327.101562 181.378906 1327.453125 188.550781 C 1327.710938 193.792969 1329.089844 198.753906 1330.804688 203.6875 C 1332.363281 208.183594 1334.121094 212.785156 1334.136719 217.605469 C 1334.152344 221.859375 1332.765625 226.367188 1329.246094 228.683594 C 1326.542969 230.464844 1329.21875 234.738281 1331.933594 232.949219 C 1335.714844 230.457031 1337.984375 226.378906 1338.78125 221.976562 C 1339.660156 217.140625 1338.871094 212.335938 1337.457031 207.679688 C 1335.929688 202.664062 1333.765625 197.800781 1332.917969 192.597656 C 1332.160156 187.953125 1332.296875 183.152344 1333.242188 178.546875 C 1333.769531 175.996094 1334.539062 173.480469 1335.546875 171.070312 C 1336.296875 171.25 1337.113281 171.273438 1338.003906 171.089844 C 1338.390625 171.007812 1338.746094 170.886719 1339.078125 170.738281 C 1339.816406 170.644531 1340.519531 170.417969 1341.183594 170.089844 C 1346.929688 181.34375 1352.242188 193.171875 1352.238281 206 C 1352.238281 212.542969 1350.773438 219.089844 1347.328125 224.699219 C 1343.78125 230.46875 1338.5 235.179688 1337.097656 242.074219 C 1335.355469 250.617188 1339.316406 258.9375 1343.078125 266.359375 C 1343.691406 267.574219 1345.476562 267.824219 1346.550781 267.148438 C 1347.796875 266.367188 1347.960938 264.890625 1347.34375 263.671875 C 1344.289062 257.648438 1340.683594 250.5625 1341.9375 243.589844 C 1343.125 236.960938 1348.667969 232.269531 1351.996094 226.703125 C 1359.339844 214.414062 1358.152344 198.972656 1353.667969 185.929688 C 1351.351562 179.179688 1348.207031 172.753906 1344.941406 166.410156 C 1345.40625 165.605469 1345.765625 164.738281 1346 163.851562 Z M 1351.636719 120.75 C 1354.257812 115.160156 1357.390625 109.777344 1361.238281 104.9375 C 1365.042969 100.148438 1369.566406 95.355469 1375.132812 92.632812 C 1377.566406 91.441406 1380.4375 90.683594 1383.152344 91.109375 C 1385.660156 91.503906 1387.839844 92.6875 1389.671875 94.402344 C 1393.570312 98.058594 1395.488281 103.457031 1395.78125 108.75 C 1396.117188 114.863281 1394.433594 121.085938 1390.890625 126.101562 C 1387.351562 131.113281 1382.304688 134.804688 1377.167969 138.027344 C 1366.875 144.492188 1355.992188 150.101562 1344.820312 154.957031 C 1344.683594 153.367188 1344.101562 151.902344 1342.527344 151 C 1342.308594 150.875 1342.082031 150.769531 1341.855469 150.683594 C 1344.296875 140.445312 1347.160156 130.292969 1351.636719 120.75 Z M 1285.421875 119.785156 C 1281.003906 115.234375 1277.101562 109.699219 1276.25 103.257812 C 1275.480469 97.441406 1277.222656 91.390625 1282.117188 88.144531 C 1286.5 85.238281 1292.265625 84.695312 1297.453125 86 C 1303.484375 87.519531 1308.59375 91.703125 1312.703125 96.269531 C 1317.214844 101.28125 1320.898438 107.136719 1324.109375 113.042969 C 1330.429688 124.660156 1334.605469 137.558594 1335.742188 150.761719 C 1334.757812 151.164062 1333.863281 151.84375 1333.171875 152.722656 C 1332.328125 153.328125 1331.601562 154.105469 1331.023438 155.003906 C 1320.550781 149.003906 1310.875 141.710938 1301.574219 134.015625 C 1296.066406 129.460938 1290.410156 124.917969 1285.421875 119.785156 Z M 1285.421875 119.785156 " fill-opacity="1" fill-rule="nonzero"/></g></svg>